<svg width="63" height="38" viewBox="0 0 63 38" fill="none" xmlns="http://www.w3.org/2000/svg">
<path d="M29.4232 0.885523C30.9104 -0.412216 32.4994 -0.283571 34.1901 1.27145C34.2919 1.36475 34.412 1.41141 34.5506 1.41141C43.2615 1.41706 51.9753 1.41847 60.692 1.41564C62.9185 1.41564 63.4995 5.22828 60.3696 5.23252C51.8142 5.23535 43.2587 5.23535 34.7033 5.23252C34.5591 5.23252 34.4403 5.28624 34.347 5.39368C30.9882 9.37596 25.7166 4.12563 29.4232 0.885523Z" fill="#242021"/>
<path d="M0.25377 6.09765C-0.0218931 4.35037 0.533684 3.01871 2.46333 3.01447C10.1734 3.00033 17.8821 2.99891 25.5894 3.01022C25.7336 3.01022 25.8042 3.08374 25.8014 3.23076C25.7816 4.45216 26.1138 5.5647 26.798 6.5684C26.914 6.73804 26.8687 6.82286 26.6623 6.82286H4.70256C4.45941 6.82286 4.35621 6.94303 4.39297 7.18335C5.60306 15.2214 6.80185 23.3019 7.98932 31.4248C8.25226 33.2399 9.72388 33.7446 11.4627 33.7446C24.7963 33.7559 38.1313 33.7573 51.4678 33.7488C53.1175 33.7488 53.9827 32.5189 54.2244 30.9158C55.378 23.2482 56.5273 15.5819 57.6724 7.91704C57.695 7.76436 57.7826 7.68661 57.9353 7.68378L61.4426 7.64137C61.5415 7.63854 61.5839 7.68519 61.5698 7.78132C60.4106 15.5451 59.2542 23.3118 58.1007 31.0812C57.3755 35.9668 54.763 37.5657 50.0216 37.5657C37.7313 37.5714 25.4423 37.5728 13.1548 37.5699C7.06478 37.5699 4.80434 36.2637 3.92646 30.3009C2.73616 22.2289 1.51193 14.1612 0.25377 6.09765Z" fill="#242021"/>
<rect x="39" y="16" width="4" height="13" rx="2" fill="#DF1C26"/>
<rect x="30" y="16" width="4" height="13" rx="2" fill="#DF1C26"/>
<rect x="20" y="16" width="4" height="13" rx="2" fill="#DF1C26"/>
</svg>
