<svg xmlns="http://www.w3.org/2000/svg" version="1.1" xmlns:xlink="http://www.w3.org/1999/xlink" xmlns:svgjs="http://svgjs.com/svgjs" width="512" height="512" x="0" y="0" viewBox="0 0 512 512" style="enable-background:new 0 0 512 512" xml:space="preserve" class=""><g><path d="M489.164 512c12.41 0 22.5-10.094 22.5-22.5v-99.074c0-17.692-9.656-33.551-25-41.703V342h15v-32.5c0-12.406-10.09-22.5-22.5-22.5h-16.5v-65.254a95.112 95.112 0 0 0-60-88.488V0h-75v133.258a95.108 95.108 0 0 0-56.473 62.777l-7.359-13.75v-59.953H60v59.563l-60 90V512zm7.227-125.668H361.94c1.454-11.55 8.973-21.453 20.012-25.867l4.711-1.887V342h85v16.578l4.715 1.887c11.039 4.414 18.559 14.316 20.012 25.867zM479.164 302c4.137 0 7.5 3.363 7.5 7.5V327h-115v-17.5c0-4.137 3.367-7.5 7.5-7.5zm-136.5-287h45v44h-45zM75 137.332h173.832v39.332H75zM195.664 497H15V281.664h180.668V497zM21.512 266.664l50-75h171.68l-44.305 75zM297 497h-86.332V276.215l45.344-76.758c0 .16 40.523 75.559 40.988 76.59.012.023-.012-.024 0 0zm50.957 0H312V272.285l-29.223-54.597a80.144 80.144 0 0 1 54.758-72.075l5.13-1.707V74h45v69.906l5.128 1.707a80.148 80.148 0 0 1 54.871 76.133V287h-68.5c-12.406 0-22.5 10.094-22.5 22.5V342h15v6.723c-15.34 8.152-25 24.011-25 41.703V489.5c0 2.629.461 5.152 1.293 7.5zm148.707-7.5c0 4.137-3.363 7.5-7.5 7.5h-120c-4.133 0-7.5-3.363-7.5-7.5v-7.168h135zm0-22.168h-135v-66h135zm0 0" fill="#FFFFFF" data-original="#000000" opacity="1" class=""></path><path d="M132.5 206.664h15v15h-15zM57.316 240.008l12.48 8.316 17.774-26.66h29.93v-15H79.543zM417.664 221.605l15-.039a65.378 65.378 0 0 0-2.219-16.746l-14.488 3.88a50.547 50.547 0 0 1 1.707 12.905zM410.988 196.68l13.004-7.477c-7.972-13.863-20.738-24.289-35.941-29.355l-4.742 14.226c11.71 3.906 21.543 11.934 27.68 22.606zM49.164 361H148.5v15H49.164zM49.164 399H156.5v15H49.164zM49.164 437h63.363v15H49.164zM396.664 426.832h15v15h-15zM426.664 426.832h15v15h-15zM456.664 426.832h15v15h-15zm0 0" fill="#FFFFFF" data-original="#000000" opacity="1" class=""></path></g></svg>