<svg width="63" height="38" viewBox="0 0 63 38" fill="none" xmlns="http://www.w3.org/2000/svg">
<g clip-path="url(#clip0_287_74)">
<path d="M29.4232 0.885523C30.9104 -0.412216 32.4994 -0.283571 34.1901 1.27145C34.2919 1.36475 34.412 1.41141 34.5506 1.41141C43.2615 1.41706 51.9753 1.41847 60.692 1.41564C62.9185 1.41564 63.4995 5.22828 60.3696 5.23252C51.8142 5.23535 43.2587 5.23535 34.7033 5.23252C34.5591 5.23252 34.4403 5.28624 34.347 5.39368C30.9882 9.37596 25.7166 4.12563 29.4232 0.885523Z" fill="white"/>
<path d="M0.25377 6.09692C-0.0218929 4.34964 0.533684 3.01798 2.46333 3.01374C10.1734 2.9996 17.8821 2.99818 25.5894 3.00949C25.7336 3.00949 25.8042 3.08301 25.8014 3.23003C25.7816 4.45143 26.1138 5.56397 26.798 6.56767C26.914 6.73731 26.8687 6.82213 26.6623 6.82213H4.70256C4.45941 6.82213 4.35621 6.9423 4.39297 7.18262C5.60306 15.2207 6.80185 23.3012 7.98932 31.4241C8.25226 33.2392 9.72388 33.7439 11.4627 33.7439C24.7963 33.7552 38.1313 33.7566 51.4678 33.7481C53.1175 33.7481 53.9827 32.5182 54.2244 30.9151C55.378 23.2475 56.5273 15.5812 57.6724 7.91631C57.695 7.76363 57.7826 7.68588 57.9353 7.68305L61.4426 7.64064C61.5415 7.63781 61.5839 7.68446 61.5698 7.78059C60.4106 15.5444 59.2542 23.3111 58.1007 31.0805C57.3755 35.9661 54.763 37.565 50.0216 37.565C37.7313 37.5707 25.4423 37.5721 13.1548 37.5692C7.06478 37.5692 4.80434 36.263 3.92646 30.3002C2.73616 22.2282 1.51193 14.1605 0.25377 6.09692Z" fill="white"/>
<path d="M43 18C43 16.8954 42.1046 16 41 16C39.8954 16 39 16.8954 39 18V27C39 28.1046 39.8954 29 41 29C42.1046 29 43 28.1046 43 27V18Z" fill="white"/>
<path d="M34 18C34 16.8954 33.1046 16 32 16C30.8954 16 30 16.8954 30 18V27C30 28.1046 30.8954 29 32 29C33.1046 29 34 28.1046 34 27V18Z" fill="white"/>
<path d="M24 18C24 16.8954 23.1046 16 22 16C20.8954 16 20 16.8954 20 18V27C20 28.1046 20.8954 29 22 29C23.1046 29 24 28.1046 24 27V18Z" fill="white"/>
</g>
<defs>
<clipPath id="clip0_287_74">
<rect width="63" height="38" fill="white"/>
</clipPath>
</defs>
</svg>
